<svg width="25" height="22" viewBox="0 0 25 22" fill="none" xmlns="http://www.w3.org/2000/svg">
<path d="M22.3039 2.93333H18.7757L17.0343 0.326334C16.9671 0.225791 16.8759 0.143387 16.769 0.0864535C16.6621 0.0295198 16.5428 -0.000178349 16.4216 8.05778e-07H8.57843C8.45724 -0.000178349 8.33789 0.0295198 8.23098 0.0864535C8.12408 0.143387 8.03295 0.225791 7.96569 0.326334L6.22304 2.93333H2.69608C1.98103 2.93333 1.29528 3.21663 0.789663 3.72089C0.28405 4.22516 0 4.90909 0 5.62222V19.3111C0 20.0242 0.28405 20.7082 0.789663 21.2124C1.29528 21.7167 1.98103 22 2.69608 22H22.3039C23.019 22 23.7047 21.7167 24.2103 21.2124C24.7159 20.7082 25 20.0242 25 19.3111V5.62222C25 4.90909 24.7159 4.22516 24.2103 3.72089C23.7047 3.21663 23.019 2.93333 22.3039 2.93333ZM23.5294 19.3111C23.5294 19.6353 23.4003 19.9461 23.1705 20.1754C22.9407 20.4046 22.6289 20.5333 22.3039 20.5333H2.69608C2.37106 20.5333 2.05935 20.4046 1.82953 20.1754C1.5997 19.9461 1.47059 19.6353 1.47059 19.3111V5.62222C1.47059 5.29807 1.5997 4.98719 1.82953 4.75798C2.05935 4.52877 2.37106 4.4 2.69608 4.4H6.61765C6.73884 4.40018 6.85819 4.37048 6.96509 4.31355C7.072 4.25661 7.16313 4.17421 7.23039 4.07367L8.97181 1.46667H16.027L17.7696 4.07367C17.8369 4.17421 17.928 4.25661 18.0349 4.31355C18.1418 4.37048 18.2612 4.40018 18.3824 4.4H22.3039C22.6289 4.4 22.9407 4.52877 23.1705 4.75798C23.4003 4.98719 23.5294 5.29807 23.5294 5.62222V19.3111ZM12.5 6.84445C11.482 6.84445 10.4869 7.14551 9.64045 7.70957C8.79402 8.27363 8.13431 9.07534 7.74474 10.0133C7.35517 10.9513 7.25324 11.9835 7.45184 12.9792C7.65044 13.975 8.14065 14.8897 8.86048 15.6076C9.58031 16.3255 10.4974 16.8144 11.4959 17.0125C12.4943 17.2105 13.5292 17.1089 14.4697 16.7204C15.4102 16.3318 16.2141 15.6739 16.7796 14.8297C17.3452 13.9855 17.6471 12.9931 17.6471 11.9778C17.6471 10.6163 17.1048 9.31065 16.1395 8.34796C15.1743 7.38528 13.8651 6.84445 12.5 6.84445ZM12.5 15.6444C11.7729 15.6444 11.0621 15.4294 10.4575 15.0265C9.85287 14.6236 9.38165 14.0509 9.10338 13.381C8.82512 12.711 8.75231 11.9737 8.89417 11.2624C9.03603 10.5512 9.38618 9.89785 9.90034 9.38505C10.4145 8.87226 11.0696 8.52304 11.7828 8.38157C12.4959 8.24009 13.2351 8.3127 13.9069 8.59022C14.5787 8.86774 15.1529 9.33771 15.5569 9.94069C15.9608 10.5437 16.1765 11.2526 16.1765 11.9778C16.1765 12.9502 15.7891 13.8829 15.0997 14.5705C14.4102 15.2581 13.4751 15.6444 12.5 15.6444Z" fill="black"/>
</svg>
