<svg width="26" height="26" viewBox="0 0 26 26" fill="none" xmlns="http://www.w3.org/2000/svg">
<path d="M11.3075 11.3076C10.8568 11.7559 10.6024 12.3646 10.6001 13.0002C10.6001 13.6368 10.853 14.2472 11.303 14.6973C11.7531 15.1474 12.3636 15.4002 13.0001 15.4002C13.6357 15.3979 14.2444 15.1435 14.6927 14.6929" stroke="black" stroke-width="1.5" stroke-linecap="round" stroke-linejoin="round"/>
<path d="M12.9998 5.7998C11.5758 5.7998 10.1837 6.22208 8.9997 7.01322C7.81567 7.80437 6.89283 8.92885 6.34788 10.2445C5.80292 11.5601 5.66034 13.0078 5.93815 14.4045C6.21597 15.8011 6.9017 17.084 7.90864 18.091C8.91558 19.0979 10.1985 19.7836 11.5952 20.0615C12.9918 20.3393 14.4395 20.1967 15.7551 19.6517C17.0708 19.1068 18.1952 18.1839 18.9864 16.9999C19.7775 15.8159 20.1998 14.4238 20.1998 12.9998" stroke="black" stroke-width="1.5" stroke-linecap="round" stroke-linejoin="round"/>
<path d="M13 1C10.6266 1 8.30655 1.70379 6.33316 3.02236C4.35977 4.34094 2.8217 6.21508 1.91345 8.4078C1.0052 10.6005 0.767559 13.0133 1.23058 15.3411C1.6936 17.6689 2.83649 19.807 4.51472 21.4853C6.19295 23.1635 8.33115 24.3064 10.6589 24.7694C12.9867 25.2324 15.3995 24.9948 17.5922 24.0865C19.7849 23.1783 21.6591 21.6402 22.9776 19.6668C24.2962 17.6934 25 15.3734 25 13M17.4526 8.54863L14.2 11.8" stroke="black" stroke-width="1.5" stroke-linecap="round" stroke-linejoin="round"/>
<path d="M24.2928 5.22368L20.2002 5.79968L20.7762 1.70705C20.7804 1.65951 20.7704 1.6118 20.7473 1.57C20.7243 1.5282 20.6893 1.49421 20.6469 1.47238C20.6045 1.45055 20.5565 1.44187 20.5091 1.44744C20.4617 1.45302 20.417 1.4726 20.3808 1.50368L17.6675 4.20305C17.3889 4.48375 17.1839 4.82898 17.0708 5.20803C16.9578 5.58707 16.9402 5.98818 17.0195 6.37568L17.4515 8.54831L19.6242 8.97905C20.0117 9.05844 20.4128 9.04082 20.7918 8.92777C21.1709 8.81472 21.5161 8.60973 21.7968 8.33105L24.4949 5.61905C24.5261 5.58276 24.5457 5.53797 24.5513 5.49044C24.5568 5.4429 24.548 5.3948 24.526 5.3523C24.504 5.3098 24.4698 5.27484 24.4278 5.25192C24.3858 5.22901 24.3379 5.21917 24.2903 5.22368" stroke="black" stroke-width="1.5" stroke-linecap="round" stroke-linejoin="round"/>
</svg>
