<svg width="27" height="20" viewBox="0 0 27 20" fill="none" xmlns="http://www.w3.org/2000/svg">
<path d="M21.6478 5.04998C21.4843 7.33766 19.8007 9.09997 17.9648 9.09997C16.1289 9.09997 14.4425 7.33823 14.2818 5.04998C14.1144 2.67006 15.7533 1 17.9648 1C20.1763 1 21.8152 2.71337 21.6478 5.04998Z" stroke="black" stroke-width="1.5" stroke-linecap="round" stroke-linejoin="round"/>
<path d="M17.9642 12.7002C14.3275 12.7002 10.8303 14.521 9.95416 18.067C9.83809 18.5361 10.1299 19.0002 10.6082 19.0002H25.3207C25.7989 19.0002 26.0891 18.5361 25.9747 18.067C25.0986 14.4642 21.6014 12.7002 17.9642 12.7002Z" stroke="black" stroke-width="1.5" stroke-miterlimit="10"/>
<path d="M10.3756 6.05892C10.245 7.88591 8.8845 9.32478 7.41799 9.32478C5.95149 9.32478 4.58877 7.88647 4.46042 6.05892C4.32705 4.15824 5.65126 2.7998 7.41799 2.7998C9.18472 2.7998 10.5089 4.19311 10.3756 6.05892Z" stroke="black" stroke-width="1.5" stroke-linecap="round" stroke-linejoin="round"/>
<path d="M10.7103 12.8125C9.70306 12.3473 8.59369 12.1685 7.41792 12.1685C4.51615 12.1685 1.72041 13.6225 1.02008 16.4547C0.928002 16.8293 1.16126 17.2 1.54295 17.2H7.80854" stroke="black" stroke-width="1.5" stroke-miterlimit="10" stroke-linecap="round"/>
</svg>
