<svg width="24" height="24" viewBox="0 0 34 34" fill="none" xmlns="http://www.w3.org/2000/svg">
<path d="M32.6789 29.9211L25.3281 22.5703C27.0979 20.2144 28.0533 17.3466 28.05 14.4C28.05 6.87344 21.9266 0.75 14.4 0.75C6.87344 0.75 0.75 6.87344 0.75 14.4C0.75 21.9266 6.87344 28.05 14.4 28.05C17.3466 28.0533 20.2144 27.0979 22.5703 25.3281L29.9211 32.6789C30.2932 33.0115 30.7785 33.1891 31.2774 33.1751C31.7763 33.1612 32.2509 32.9567 32.6038 32.6038C32.9567 32.2509 33.1612 31.7763 33.1751 31.2774C33.1891 30.7785 33.0115 30.2932 32.6789 29.9211ZM4.65 14.4C4.65 12.4716 5.22183 10.5866 6.29317 8.98319C7.36451 7.37981 8.88726 6.13013 10.6688 5.39217C12.4504 4.65422 14.4108 4.46114 16.3021 4.83734C18.1934 5.21355 19.9307 6.14215 21.2943 7.50571C22.6579 8.86927 23.5865 10.6066 23.9627 12.4979C24.3389 14.3892 24.1458 16.3496 23.4078 18.1312C22.6699 19.9127 21.4202 21.4355 19.8168 22.5068C18.2134 23.5782 16.3284 24.15 14.4 24.15C11.8151 24.1469 9.33694 23.1187 7.50913 21.2909C5.68133 19.4631 4.6531 16.9849 4.65 14.4Z" fill="currentColor"/>
</svg>
