<svg width="27" height="20" viewBox="0 0 27 20" fill="none" xmlns="http://www.w3.org/2000/svg">
<path d="M16.6665 9.49999C15.5957 9.49999 14.5603 9.00448 13.7499 8.10522C12.9619 7.22809 12.4806 6.0584 12.3957 4.81261C12.3051 3.48369 12.6962 2.26165 13.4967 1.37102C14.2973 0.480397 15.4165 0 16.6665 0C17.9077 0 19.0301 0.489033 19.828 1.3775C20.6337 2.2746 21.0259 3.49448 20.9352 4.81207C20.8483 6.05948 20.3675 7.22863 19.5811 8.10468C18.7728 9.00448 17.7379 9.49999 16.6665 9.49999ZM23.5326 19H9.80093C9.58016 19.0012 9.36205 18.9499 9.16341 18.8501C8.96476 18.7502 8.79086 18.6045 8.6551 18.424C8.51109 18.2284 8.41165 18.0016 8.3642 17.7605C8.31676 17.5195 8.32255 17.2704 8.38115 17.032C8.81969 15.207 9.90614 13.6935 11.5228 12.6555C12.9577 11.7346 14.7842 11.2273 16.6665 11.2273C18.5858 11.2273 20.3644 11.7131 21.8076 12.6334C23.4279 13.6659 24.516 15.1881 24.9524 17.0352C25.0103 17.2738 25.0154 17.5229 24.9675 17.7638C24.9195 18.0048 24.8196 18.2314 24.6753 18.4267C24.5397 18.6063 24.3662 18.7514 24.1681 18.8507C23.9701 18.9501 23.7527 19.0011 23.5326 19ZM6.82282 9.7159C4.99002 9.7159 3.37857 7.94976 3.22909 5.77934C3.15513 4.66741 3.48951 3.63914 4.16659 2.88508C4.83637 2.13858 5.78116 1.72727 6.82282 1.72727C7.86448 1.72727 8.80198 2.14074 9.47541 2.89156C10.1577 3.65156 10.491 4.67766 10.4129 5.78042C10.2634 7.9503 8.6525 9.7159 6.82282 9.7159ZM10.2426 11.4135C9.32645 10.9493 8.1374 10.7172 6.82334 10.7172C5.28897 10.7172 3.79888 11.1317 2.62701 11.8842C1.29837 12.7386 0.404626 13.9828 0.0436905 15.485C-0.00912944 15.7011 -0.0141253 15.9267 0.0290767 16.1451C0.0722788 16.3634 0.16256 16.5688 0.293168 16.7459C0.417099 16.9108 0.575867 17.044 0.757263 17.1353C0.938659 17.2267 1.13785 17.2737 1.33952 17.2727H7.12074C7.21831 17.2727 7.31279 17.2372 7.3877 17.1724C7.4626 17.1076 7.51319 17.0176 7.53063 16.9181C7.53636 16.8841 7.54365 16.8501 7.55198 16.8166C7.99365 14.9781 9.02854 13.4247 10.5577 12.2922C10.6139 12.2502 10.6592 12.1943 10.6893 12.1296C10.7194 12.0649 10.7335 11.9934 10.7303 11.9216C10.727 11.8499 10.7065 11.7801 10.6706 11.7186C10.6348 11.6571 10.5847 11.6058 10.5249 11.5695C10.4431 11.5198 10.3494 11.4675 10.2426 11.4135Z" fill="black"/>
</svg>
