<svg width="25" height="22" viewBox="0 0 25 22" fill="none" xmlns="http://www.w3.org/2000/svg">
<path d="M22.1154 2.86957H18.7837L17.1454 0.425652C17.0577 0.29479 16.9388 0.187482 16.7994 0.113235C16.66 0.0389881 16.5043 9.44624e-05 16.3462 0H8.65385C8.49571 9.44624e-05 8.34003 0.0389881 8.20061 0.113235C8.06119 0.187482 7.94233 0.29479 7.85457 0.425652L6.21514 2.86957H2.88462C2.11957 2.86957 1.38585 3.17189 0.844884 3.71004C0.303914 4.24819 0 4.97807 0 5.73913V19.1304C0 19.8915 0.303914 20.6214 0.844884 21.1595C1.38585 21.6977 2.11957 22 2.88462 22H22.1154C22.8804 22 23.6141 21.6977 24.1551 21.1595C24.6961 20.6214 25 19.8915 25 19.1304V5.73913C25 4.97807 24.6961 4.24819 24.1551 3.71004C23.6141 3.17189 22.8804 2.86957 22.1154 2.86957ZM16.8269 11.9565C16.8269 12.8078 16.5732 13.64 16.0977 14.3479C15.6223 15.0557 14.9465 15.6074 14.1558 15.9332C13.3652 16.259 12.4952 16.3442 11.6559 16.1782C10.8165 16.0121 10.0455 15.6021 9.4404 15.0002C8.83527 14.3982 8.42317 13.6312 8.25622 12.7963C8.08926 11.9613 8.17495 11.0958 8.50244 10.3093C8.82994 9.5228 9.38453 8.85056 10.0961 8.37759C10.8076 7.90462 11.6442 7.65217 12.5 7.65217C13.6476 7.65217 14.7481 8.10567 15.5596 8.91289C16.3711 9.72011 16.8269 10.8149 16.8269 11.9565Z" fill="black"/>
</svg>
