<svg width="26" height="26" viewBox="0 0 26 24" fill="none" xmlns="http://www.w3.org/2000/svg">
<path d="M11.9996 15.1022C11.3849 15.1027 10.7839 14.9207 10.2729 14.5791C9.76184 14.2375 9.36379 13.7517 9.12925 13.1835C8.89471 12.6153 8.83424 11.9903 8.95551 11.3876C9.07679 10.785 9.37434 10.232 9.81041 9.79877C9.89266 9.71728 9.99015 9.6528 10.0973 9.60899C10.2045 9.56519 10.3192 9.54292 10.435 9.54347C10.5508 9.54401 10.6653 9.56735 10.7721 9.61216C10.8788 9.65697 10.9757 9.72237 11.0572 9.80462C11.1387 9.88687 11.2031 9.98437 11.2469 10.0915C11.2907 10.1987 11.313 10.3135 11.3125 10.4292C11.3119 10.545 11.2886 10.6596 11.2438 10.7663C11.199 10.8731 11.1336 10.97 11.0513 11.0514C10.925 11.1749 10.8248 11.3225 10.7564 11.4853C10.688 11.6482 10.653 11.8231 10.6533 11.9997C10.6377 12.2778 10.7095 12.5538 10.8586 12.789C11.0077 13.0242 11.2267 13.2068 11.4848 13.3114C11.7429 13.4159 12.0273 13.4371 12.298 13.3719C12.5688 13.3068 12.8123 13.1586 12.9946 12.948C13.1613 12.7829 13.3864 12.6902 13.6209 12.6902C13.8555 12.6902 14.0806 12.7829 14.2473 12.948C14.4096 13.1161 14.5004 13.3407 14.5004 13.5744C14.5004 13.8081 14.4096 14.0326 14.2473 14.2007C13.9514 14.4929 13.6002 14.7232 13.2143 14.878C12.8283 15.0328 12.4153 15.109 11.9996 15.1022Z" fill="black"/>
<path d="M23.9988 12C23.9988 15.1826 22.7345 18.2348 20.4842 20.4853C18.2339 22.7357 15.1818 24 11.9994 24C8.81694 24 5.76485 22.7357 3.51454 20.4853C1.26422 18.2348 0 15.1826 0 12C0 8.8174 1.26422 5.76515 3.51454 3.51472C5.76485 1.26428 8.81694 0 11.9994 0C12.2322 0 12.4556 0.0925085 12.6202 0.257175C12.7849 0.421841 12.8774 0.645176 12.8774 0.878049V5.32683C12.8743 5.55876 12.7809 5.78034 12.6169 5.94435C12.4529 6.10836 12.2313 6.20185 11.9994 6.20488C10.8529 6.19699 9.73073 6.53569 8.78003 7.17659C7.82397 7.81024 7.07839 8.71441 6.63844 9.77369C6.19848 10.833 6.08411 11.9993 6.30992 13.1239C6.67714 14.458 7.50509 15.619 8.64687 16.4006C9.78865 17.1823 11.1704 17.5342 12.547 17.3939C13.9235 17.2535 15.2059 16.6301 16.1664 15.6341C17.127 14.6381 17.7037 13.334 17.7942 11.9532C17.7928 11.8375 17.8145 11.7227 17.8581 11.6155C17.9018 11.5083 17.9664 11.411 18.0482 11.3291C18.13 11.2473 18.2274 11.1827 18.3345 11.1391C18.4417 11.0955 18.5565 11.0737 18.6722 11.0751H23.1207C23.2401 11.075 23.3582 11.0991 23.4679 11.1461C23.5776 11.1932 23.6766 11.2621 23.7587 11.3486C23.8409 11.4352 23.9046 11.5376 23.9459 11.6496C23.9871 11.7616 24.0051 11.8808 23.9988 12Z" fill="black"/>
<path d="M23.577 5.12787C23.5464 5.35564 23.4532 5.57045 23.3077 5.74835L20.7674 8.28884C20.407 8.65281 19.9598 8.91877 19.4679 9.06152C19.18 9.15095 18.8797 9.19442 18.5782 9.19031C18.3718 9.20762 18.1642 9.20762 17.9578 9.19031L16.4008 8.88592L13.7316 11.5669C13.5644 11.7275 13.343 11.8194 13.1112 11.8245C12.8784 11.8242 12.6552 11.7316 12.4907 11.5669C12.4079 11.4862 12.3421 11.3897 12.2971 11.2831C12.2522 11.1766 12.229 11.0621 12.229 10.9464C12.229 10.8307 12.2522 10.7163 12.2971 10.6097C12.3421 10.5031 12.4079 10.4066 12.4907 10.3259L15.1716 7.63323L14.8555 6.08787C14.761 5.58976 14.7851 5.07641 14.9257 4.58933C15.0685 4.09745 15.3344 3.65016 15.6984 3.28982L18.2153 0.772744C18.3883 0.615411 18.6044 0.513472 18.8358 0.480061C19.0523 0.447889 19.2735 0.484756 19.4679 0.585427C19.6611 0.683686 19.8232 0.833643 19.9362 1.0186C20.0505 1.22556 20.0995 1.46229 20.0767 1.69762L19.7021 4.34348L22.3361 3.98055C22.5566 3.95891 22.7784 4.00432 22.9727 4.11085C23.1669 4.21738 23.3245 4.38007 23.4248 4.57762C23.5202 4.74567 23.5724 4.9347 23.577 5.12787Z" fill="black"/>
</svg>
