<svg width="24" height="24" viewBox="0 0 24 24" fill="none" xmlns="http://www.w3.org/2000/svg">
<path fill-rule="evenodd" clip-rule="evenodd" d="M24 12C24 18.6276 18.6276 24 12 24C5.3724 24 0 18.6276 0 12C0 5.3724 5.3724 0 12 0C18.6276 0 24 5.3724 24 12ZM15.6 8.4C15.6 9.35478 15.2207 10.2705 14.5456 10.9456C13.8705 11.6207 12.9548 12 12 12C11.0452 12 10.1295 11.6207 9.45442 10.9456C8.77928 10.2705 8.4 9.35478 8.4 8.4C8.4 7.44522 8.77928 6.52955 9.45442 5.85442C10.1295 5.17928 11.0452 4.8 12 4.8C12.9548 4.8 13.8705 5.17928 14.5456 5.85442C15.2207 6.52955 15.6 7.44522 15.6 8.4ZM12 22.2C14.0595 22.2033 16.0714 21.5801 17.7684 20.4132C18.4932 19.9152 18.8028 18.9672 18.3804 18.1956C17.508 16.596 15.708 15.6 12 15.6C8.292 15.6 6.492 16.596 5.6184 18.1956C5.1972 18.9672 5.5068 19.9152 6.2316 20.4132C7.92864 21.5801 9.94047 22.2033 12 22.2Z" fill="black"/>
</svg>
