<svg width="24" height="24" viewBox="0 0 24 24" fill="none" xmlns="http://www.w3.org/2000/svg">
<path fill-rule="evenodd" clip-rule="evenodd" d="M7.81396 8.65138C7.81396 7.54117 8.25499 6.47643 9.04003 5.6914C9.82507 4.90636 10.8898 4.46533 12 4.46533C13.1102 4.46533 14.175 4.90636 14.96 5.6914C15.745 6.47643 16.1861 7.54117 16.1861 8.65138C16.1861 9.76159 15.745 10.8263 14.96 11.6114C14.175 12.3964 13.1102 12.8374 12 12.8374C10.8898 12.8374 9.82507 12.3964 9.04003 11.6114C8.25499 10.8263 7.81396 9.76159 7.81396 8.65138ZM12 6.13975C11.3339 6.13975 10.695 6.40437 10.224 6.87539C9.753 7.34641 9.48838 7.98525 9.48838 8.65138C9.48838 9.3175 9.753 9.95635 10.224 10.4274C10.695 10.8984 11.3339 11.163 12 11.163C12.6661 11.163 13.305 10.8984 13.776 10.4274C14.247 9.95635 14.5116 9.3175 14.5116 8.65138C14.5116 7.98525 14.247 7.34641 13.776 6.87539C13.305 6.40437 12.6661 6.13975 12 6.13975Z" fill="black"/>
<path fill-rule="evenodd" clip-rule="evenodd" d="M0 12C0 5.37265 5.37265 0 12 0C18.6273 0 24 5.37265 24 12C24 18.6273 18.6273 24 12 24C5.37265 24 0 18.6273 0 12ZM12 1.67442C9.96022 1.67451 7.96615 2.27876 6.26941 3.41091C4.57266 4.54306 3.24925 6.1524 2.46615 8.03588C1.68305 9.91935 1.47535 11.9926 1.86925 13.994C2.26315 15.9954 3.24101 17.8352 4.67944 19.2815C4.88037 18.1954 5.27665 17.1717 6.07033 16.3479C7.25916 15.1155 9.15795 14.5116 12 14.5116C14.842 14.5116 16.7408 15.1155 17.9286 16.3479C18.7234 17.1717 19.1185 18.1965 19.3206 19.2826C20.7594 17.8364 21.7376 15.9964 22.1317 13.9949C22.5258 11.9933 22.3182 9.9198 21.535 8.03609C20.7519 6.15239 19.4283 4.54287 17.7313 3.41067C16.0344 2.27846 14.04 1.67429 12 1.67442ZM17.798 20.5451C17.6841 19.1922 17.3905 18.2009 16.7241 17.51C15.9985 16.7587 14.6556 16.186 12 16.186C9.34437 16.186 8.00149 16.7587 7.27591 17.51C6.60949 18.202 6.31591 19.1922 6.20205 20.5462C7.91171 21.7091 9.93236 22.3292 12 22.3256C14.0677 22.3288 16.0884 21.7083 17.798 20.5451Z" fill="black"/>
</svg>
